<?xml version="1.0" encoding="UTF-8"?><svg version="1.1" viewBox="0 0 32 32" xmlns="http://www.w3.org/2000/svg" xmlns:xlink="http://www.w3.org/1999/xlink"><!--Generated by IJSVG (https://github.com/iconjar/IJSVG)--><path d="M32,56l-1.04907e-06,-2.84217e-14c-13.2548,-5.79387e-07 -24,-10.7452 -24,-24c5.79387e-07,-13.2548 10.7452,-24 24,-24c13.2548,5.79387e-07 24,10.7452 24,24l2.13163e-14,-1.04907e-06c0,13.2548 -10.7452,24 -24,24Zm20,-24l-2.68252e-07,0.000826389c0.00381371,-11.0457 -8.9474,-20.0031 -19.9931,-20.0069c-11.0457,-0.00381371 -20.0031,8.9474 -20.0069,19.9931c-0.00171595,4.96993 1.84705,9.76246 5.18604,13.4437l2.17152e-08,2.36469e-08c0.277029,0.301672 0.746159,0.32165 1.04783,0.0446212c0.0238664,-0.0219167 0.0462707,-0.0453741 0.0670689,-0.0702213c2.4938,-3.0512 7.0137,-5.4093 13.7,-5.4093c6.6863,0 11.2049,2.35811 13.6991,5.40871l2.40506e-08,2.87274e-08c0.262919,0.314046 0.730642,0.355492 1.04469,0.0925727c0.0248444,-0.0207997 0.0482989,-0.0432053 0.0702128,-0.0670728l1.28306e-07,-1.41041e-07c3.34206,-3.6738 5.19129,-8.4635 5.1851,-13.43Zm-19.9988,5.0137c-4.8059,0 -9.004,-3.969 -9.004,-10.3589c0,-5.5011 3.6354,-9.6447 9.004,-9.6447c5.3686,0 9.0039,4.1436 9.0039,9.6447c0,6.3899 -4.1978,10.3589 -9.0039,10.3589Z" transform="matrix(0.5,0,0,0.5,0,0)" fill-rule="evenodd" fill="#000"></path></svg>