<?xml version="1.0" encoding="UTF-8"?><svg version="1.1" viewBox="0 0 64 64" xmlns="http://www.w3.org/2000/svg" xmlns:xlink="http://www.w3.org/1999/xlink"><!--Generated by IJSVG (https://github.com/iconjar/IJSVG)--><path d="M61.9934,14.3707c-0.6719,1.4376 -3.27,6.489 -7.5094,8.6686l-1.32462e-07,-7.76436e-09c1.85367,0.108654 3.70425,-0.25974 5.375,-1.07l-2.83672e-08,1.3326e-08c0.12217,-0.0573913 0.267732,-0.00487821 0.325124,0.117291c0.0303629,0.0646339 0.0309388,0.139314 0.00157628,0.204409c-2.3824,5.0242 -6.6443,5.6582 -11.2693,8.05l-8.32938e-07,-9.29947e-08c2.04455,0.228267 4.11072,0.175646 6.141,-0.1564l-2.11793e-08,3.91753e-09c0.132564,-0.0245204 0.259906,0.0630662 0.284426,0.19563c0.0135954,0.0735005 -0.00723438,0.149179 -0.0565265,0.20537c-5.29,5.8172 -8.766,2.3286 -14.801,6.6816l-3.32162e-06,2.30493e-06c-3.75883,2.60832 -6.9763,5.92067 -9.4743,9.7537l6.40385e-08,-1.17149e-07c-0.337215,0.616885 -0.984363,1.0004 -1.6874,1l3.41479e-08,-7.37046e-11c-0.730064,0.00157574 -1.32317,-0.58898 -1.32475,-1.31904c-0.000130632,-0.0605235 0.00389551,-0.120984 0.01205,-0.180956c0,-2.1093 3.8511,-10.29 13.4527,-19.8448c10.72,-10.6682 18.4346,-12.38 20.28,-12.646l-1.33202e-08,2.00458e-09c0.130581,-0.0196514 0.252368,0.0702748 0.27202,0.200856c0.00717156,0.0476541 -0.000224134,0.0963632 -0.0212174,0.139741Zm-25.983,7.65h-26l-8.74228e-08,-3.55271e-15c-1.10457,-4.82823e-08 -2,-0.895431 -2,-2c4.82823e-08,-1.10457 0.895431,-2 2,-2h26l-8.74228e-08,3.55271e-15c1.10457,-4.82823e-08 2,0.89543 2,2c4.82823e-08,1.10457 -0.89543,2 -2,2Zm-26,8h18l-8.74228e-08,3.55271e-15c1.10457,-4.82823e-08 2,0.89543 2,2c4.82823e-08,1.10457 -0.89543,2 -2,2h-18h-8.74228e-08c-1.10457,-4.82823e-08 -2,-0.895431 -2,-2c4.82823e-08,-1.10457 0.895431,-2 2,-2Zm0,12h10h-8.74228e-08c1.10457,-4.82823e-08 2,0.89543 2,2c4.82823e-08,1.10457 -0.89543,2 -2,2h-10h-8.74228e-08c-1.10457,-4.82823e-08 -2,-0.895431 -2,-2c4.82823e-08,-1.10457 0.895431,-2 2,-2Z" fill="#000" fill-rule="evenodd"></path></svg>