<?xml version="1.0" encoding="UTF-8"?><svg version="1.1" viewBox="0 0 64 64" xmlns="http://www.w3.org/2000/svg" xmlns:xlink="http://www.w3.org/1999/xlink"><!--Generated by IJSVG (https://github.com/iconjar/IJSVG)--><path d="M33.4079,43.43l-3.7002e-08,3.70467e-08c-0.780265,0.781207 -2.04609,0.78197 -2.8273,0.00170469c-0.000568596,-0.000567911 -0.00113685,-0.00113616 -0.00170476,-0.00170476l-15.0045,-15.0122l-1.19292e-07,-1.16117e-07c-0.791865,-0.770793 -0.808946,-2.03758 -0.0381532,-2.82944c0.770793,-0.791865 2.03758,-0.808946 2.82944,-0.0381532c0.0127029,0.0123649 0.0252409,0.024898 0.0376107,0.0375961l13.59,13.5968l13.59,-13.5968l1.19306e-07,-1.22741e-07c0.770273,-0.792448 2.03711,-0.810425 2.82956,-0.0401527c0.792448,0.770273 0.810425,2.03711 0.0401527,2.82956c-0.0133416,0.0137257 -0.0268794,0.0272592 -0.0406094,0.0405964Z" fill="#000" fill-rule="evenodd"></path></svg>