<svg width="24" height="24" viewBox="0 0 24 24" fill="none" xmlns="http://www.w3.org/2000/svg">
<path fill-rule="evenodd" clip-rule="evenodd" d="M1.25 12C1.25 6.06294 6.06294 1.25 12 1.25C17.9371 1.25 22.75 6.06294 22.75 12C22.75 17.9371 17.9371 22.75 12 22.75C6.06294 22.75 1.25 17.9371 1.25 12ZM9 7.75C8.30964 7.75 7.75 8.30964 7.75 9C7.75 9.69036 8.30964 10.25 9 10.25C9.69036 10.25 10.25 9.69036 10.25 9C10.25 8.30964 9.69036 7.75 9 7.75ZM15 7.75C14.3096 7.75 13.75 8.30964 13.75 9C13.75 9.69036 14.3096 10.25 15 10.25C15.6904 10.25 16.25 9.69036 16.25 9C16.25 8.30964 15.6904 7.75 15 7.75ZM17 13C17 13 15.7498 17 12 17C8.25019 17 7 13 7 13H17Z" fill="#2F384C"/>
</svg>
