<svg width="24" height="24" viewBox="0 0 24 24" fill="none" xmlns="http://www.w3.org/2000/svg">
<path d="M15.5621 4.44717C14.4311 2.18515 13.8656 1.05414 13.126 0.681032C12.4178 0.323799 11.5822 0.323799 10.874 0.68103C10.1344 1.05413 9.56889 2.18515 8.43788 4.44718V4.44718C8.13096 5.061 7.97751 5.36791 7.76831 5.60789C7.49873 5.91713 7.1572 6.15528 6.77383 6.30133C6.47632 6.41467 6.1415 6.45187 5.47185 6.52628V6.52628C3.13974 6.7854 1.97369 6.91496 1.39893 7.38946C0.657253 8.00176 0.332583 8.98524 0.563944 9.91876C0.743237 10.6422 1.61599 11.4526 3.36151 13.0734V13.0734C3.90526 13.5784 4.17714 13.8308 4.35482 14.1182C4.62984 14.563 4.75844 15.0829 4.7225 15.6047C4.69928 15.9418 4.57825 16.2867 4.3362 16.9765V16.9765C3.54949 19.2187 3.15614 20.3397 3.3044 21.0286C3.53546 22.1021 4.44007 22.8992 5.5342 22.9933C6.23623 23.0537 7.29886 22.5224 9.42413 21.4598L10.2111 21.0663C10.8671 20.7383 11.195 20.5743 11.539 20.5098C11.8437 20.4526 12.1563 20.4526 12.461 20.5098C12.805 20.5743 13.1329 20.7383 13.7889 21.0663L14.5759 21.4598C16.7011 22.5224 17.7638 23.0537 18.4658 22.9933C19.5599 22.8992 20.4645 22.1021 20.6956 21.0286C20.8438 20.3397 20.4505 19.2187 19.6638 16.9765V16.9765C19.4217 16.2867 19.3007 15.9418 19.2775 15.6047C19.2416 15.0829 19.3701 14.563 19.6452 14.1182C19.8229 13.8308 20.0947 13.5784 20.6385 13.0734V13.0734C22.384 11.4526 23.2568 10.6422 23.436 9.91876C23.6674 8.98524 23.3427 8.00176 22.6011 7.38946C22.0263 6.91496 20.8602 6.7854 18.5281 6.52628V6.52628C17.8585 6.45187 17.5237 6.41467 17.2262 6.30133C16.8428 6.15528 16.5013 5.91713 16.2317 5.60789C16.0225 5.36791 15.869 5.061 15.5621 4.44717V4.44717Z" fill="#2F384C"/>
</svg>
