<svg width="24" height="24" viewBox="0 0 24 24" fill="none" xmlns="http://www.w3.org/2000/svg">
<path d="M8 7V5.2C8 4.0799 8 3.51984 8.21799 3.09202C8.40973 2.71569 8.71569 2.40973 9.09202 2.21799C9.51984 2 10.0799 2 11.2 2H12.8C13.9201 2 14.4802 2 14.908 2.21799C15.2843 2.40973 15.5903 2.71569 15.782 3.09202C16 3.51984 16 4.07989 16 5.2V7M12 13V15M12 22V22C16.4183 22 20 18.4183 20 14V14C20 9.58172 16.4183 6 12 6V6C7.58172 6 4 9.58172 4 14V14C4 18.4183 7.58172 22 12 22Z" stroke="#2F384C" stroke-width="1.5" stroke-linecap="round"/>
</svg>
