<svg width="24" height="24" viewBox="0 0 24 24" fill="none" xmlns="http://www.w3.org/2000/svg">
<path d="M9.5 9C9.5 9.27614 9.27614 9.5 9 9.5C8.72386 9.5 8.5 9.27614 8.5 9M9.5 9C9.5 8.72386 9.27614 8.5 9 8.5C8.72386 8.5 8.5 8.72386 8.5 9M9.5 9H8.5M15.5 9C15.5 9.27614 15.2761 9.5 15 9.5C14.7239 9.5 14.5 9.27614 14.5 9M15.5 9C15.5 8.72386 15.2761 8.5 15 8.5C14.7239 8.5 14.5 8.72386 14.5 9M15.5 9H14.5M12 22C6.47715 22 2 17.5228 2 12C2 6.47715 6.47715 2 12 2C17.5228 2 22 6.47715 22 12C22 17.5228 17.5228 22 12 22ZM17 13C17 13 15.7498 17 12 17C8.25019 17 7 13 7 13H17Z" stroke="#2F384C" stroke-width="1.5" stroke-linecap="round" stroke-linejoin="round"/>
</svg>
