<svg width="24" height="24" viewBox="0 0 24 24" fill="none" xmlns="http://www.w3.org/2000/svg">
<path fill-rule="evenodd" clip-rule="evenodd" d="M1.25002 12C1.25002 6.06294 6.06295 1.25 12 1.25C17.9371 1.25 22.75 6.06294 22.75 12C22.75 17.9371 17.9371 22.75 12 22.75C6.06295 22.75 1.25002 17.9371 1.25002 12ZM9.00002 8.75C8.30966 8.75 7.75002 9.30964 7.75002 10C7.75002 10.6904 8.30966 11.25 9.00002 11.25C9.69037 11.25 10.25 10.6904 10.25 10C10.25 9.30964 9.69037 8.75 9.00002 8.75ZM15 8.75C14.3097 8.75 13.75 9.30964 13.75 10C13.75 10.6904 14.3097 11.25 15 11.25C15.6904 11.25 16.25 10.6904 16.25 10C16.25 9.30964 15.6904 8.75 15 8.75ZM11.9999 13.25C10.1182 13.25 8.44762 14.1546 7.39985 15.5496C7.15108 15.8808 7.2179 16.3509 7.54909 16.5997C7.88028 16.8484 8.35043 16.7816 8.5992 16.4504C9.37585 15.4165 10.6099 14.75 11.9999 14.75C13.3899 14.75 14.6239 15.4165 15.4006 16.4504C15.6494 16.7816 16.1195 16.8484 16.4507 16.5997C16.7819 16.3509 16.8487 15.8808 16.5999 15.5496C15.5522 14.1546 13.8816 13.25 11.9999 13.25Z" fill="#2F384C"/>
</svg>
