<?xml version="1.0" encoding="UTF-8"?>
<svg width="456px" height="805px" viewBox="0 0 456 805" version="1.1" xmlns="http://www.w3.org/2000/svg" xmlns:xlink="http://www.w3.org/1999/xlink">
    <title>tower</title>
    <g id="App-Icon" stroke="none" stroke-width="1" fill="none" fill-rule="evenodd">
        <g id="Artwork---Editable" transform="translate(-284.000000, -117.000000)" fill="#000000">
            <g id="design" transform="translate(-0.000000, -0.000000)">
                <g id="tower" transform="translate(284.000000, 116.999700)">
                    <path d="M312.2,515.0002 C323.6,515.0002 334.79,518.0502 344.62,523.8202 L388.42,549.5592 C407.99,561.0502 420,582.0502 420,604.7402 L420,699.0102 C420,734.3562 391.346,763.0102 356,763.0102 L288,763.0102 C274.745,763.0102 264,752.2642 264,739.0102 L264,633.0002 C264,628.5822 260.418,625.0002 256,625.0002 L200,625.0002 C195.582,625.0002 192,628.5822 192,633.0002 L192,739.0102 C192,752.2642 181.255,763.0102 168,763.0102 L143.79,763.0102 C126.69,763.0102 109.89,767.5802 95.15,776.2402 L48.13,803.8802 C42.76,807.0302 36,803.1602 36,796.9402 L36,579.0002 C36,543.6542 64.654,515.0002 100,515.0002 L312.2,515.0002 Z M356,234.9999 C391.346,234.9999 420,263.6539 420,298.9999 L420,298.9999 L420,516.9379 C420,523.1629 413.237,527.0319 407.871,523.8779 L407.871,523.8779 L360.855,496.2429 C346.109,487.5759 329.314,483.0059 312.21,483.0059 L312.21,483.0059 L100,483.0059 C64.654,483.0059 36,454.3519 36,419.0059 L36,419.0059 L36,298.9999 C36,263.6539 64.654,234.9999 100,234.9999 L100,234.9999 Z M456,24 L456,139 C456,174.346 427.346,203 392,203 L64,203 C28.654,203 0,174.346 0,139 L0,24 C0,10.745 10.745,0 24,0 L74.364,0 C85.786,0 95.626,8.051 97.888,19.247 L110.112,79.753 C112.374,90.949 122.214,99 133.636,99 L146.364,99 C157.786,99 167.626,90.949 169.888,79.753 L182.112,19.247 C184.374,8.051 194.214,0 205.636,0 L250.364,0 C261.786,0 271.626,8.051 273.888,19.247 L286.112,79.753 C288.374,90.949 298.214,99 309.636,99 L322.364,99 C333.786,99 343.626,90.949 345.888,79.753 L358.112,19.247 C360.374,8.051 370.214,0 381.636,0 L432,0 C445.255,0 456,10.745 456,24"></path>
                </g>
            </g>
        </g>
    </g>
</svg>