<?xml version="1.0" encoding="UTF-8"?><svg version="1.1" viewBox="0 0 64 64" xmlns="http://www.w3.org/2000/svg" xmlns:xlink="http://www.w3.org/1999/xlink"><!--Generated by IJSVG (https://github.com/iconjar/IJSVG)--><path d="M50.09,8.2082l-1.03892e-07,6.0162e-08c0.623846,-0.36126 1.42243,-0.148392 1.78369,0.475455c0.157401,0.27181 0.211513,0.591261 0.152408,0.899745l-7.5119,39.1433l3.76673e-08,-1.9152e-07c-0.167979,0.854094 -0.996534,1.4103 -1.85063,1.24232c-0.073637,-0.0144826 -0.146146,-0.0342061 -0.216972,-0.0590201l-11.6878,-4.3765l-4.9822,9.9626l-3.44111e-09,6.88867e-09c-0.228763,0.457955 -0.785457,0.643751 -1.24341,0.414989c-0.314251,-0.156978 -0.51276,-0.478112 -0.512689,-0.829389v-10.6579l-7.0236e-08,5.70757e-06c0.0112297,-0.912608 0.323415,-1.79598 0.888097,-2.513c0.6483,-0.7407 19.1018,-24.89 19.1018,-24.89c0,0 -24.7166,22.0872 -25.6887,22.8745l3.952e-08,-3.33311e-08c-0.810179,0.683304 -1.91754,0.895791 -2.9231,0.5609l-10.5076,-3.5932l2.09562e-08,7.16093e-09c-0.678198,-0.231746 -1.04012,-0.969402 -0.808372,-1.6476c0.101771,-0.297831 0.308315,-0.548524 0.581172,-0.7054Z" fill="#000" fill-rule="evenodd"></path></svg>