<svg width="24" height="24" viewBox="0 0 24 24" fill="none" xmlns="http://www.w3.org/2000/svg">
<path d="M9 12L11 14L15.5 9.5M9.40073 2.15522L5.85055 3.73307C4.81875 4.19164 4.30286 4.42093 3.92457 4.78336C3.59019 5.10373 3.33451 5.49715 3.17756 5.93283C3 6.42571 3 6.99026 3 8.11937V13.5748C3 14.8271 3 15.4532 3.1726 16.0216C3.32541 16.5247 3.57592 16.9928 3.90982 17.3991C4.28697 17.858 4.80796 18.2053 5.84992 18.8999L9.33744 21.2249C10.2997 21.8664 10.7808 22.1872 11.3009 22.3118C11.7605 22.422 12.2395 22.422 12.6991 22.3118C13.2192 22.1872 13.7003 21.8664 14.6626 21.2249L18.1501 18.8999C19.192 18.2053 19.713 17.858 20.0902 17.3991C20.4241 16.9928 20.6746 16.5247 20.8274 16.0216C21 15.4532 21 14.8271 21 13.5748V8.11937C21 6.99026 21 6.42571 20.8224 5.93283C20.6655 5.49715 20.4098 5.10373 20.0754 4.78336C19.6971 4.42093 19.1812 4.19164 18.1495 3.73307L14.5993 2.15522C13.6421 1.72982 13.1635 1.51711 12.666 1.43311C12.2251 1.35865 11.7749 1.35865 11.334 1.43311C10.8365 1.51711 10.3579 1.72982 9.40073 2.15522Z" stroke="#2F384C" stroke-width="1.5" stroke-linecap="round" stroke-linejoin="round"/>
</svg>
