<svg width="24" height="24" viewBox="0 0 24 24" fill="none" xmlns="http://www.w3.org/2000/svg">
<path fill-rule="evenodd" clip-rule="evenodd" d="M1.25 12C1.25 6.06294 6.06294 1.25 12 1.25C17.9371 1.25 22.75 6.06294 22.75 12C22.75 17.9371 17.9371 22.75 12 22.75C6.06294 22.75 1.25 17.9371 1.25 12ZM8.99998 8.74998C8.30963 8.74998 7.74998 9.30963 7.74998 9.99998C7.74998 10.6903 8.30963 11.25 8.99998 11.25C9.69034 11.25 10.25 10.6903 10.25 9.99998C10.25 9.30963 9.69034 8.74998 8.99998 8.74998ZM15 8.74998C14.3096 8.74998 13.75 9.30963 13.75 9.99998C13.75 10.6903 14.3096 11.25 15 11.25C15.6903 11.25 16.25 10.6903 16.25 9.99998C16.25 9.30963 15.6903 8.74998 15 8.74998ZM8.59917 14.5495C8.3504 14.2184 7.88025 14.1515 7.54906 14.4003C7.21787 14.6491 7.15105 15.1192 7.39982 15.4504C8.44759 16.8453 10.1182 17.75 11.9999 17.75C13.8815 17.75 15.5521 16.8453 16.5999 15.4504C16.8487 15.1192 16.7819 14.6491 16.4507 14.4003C16.1195 14.1515 15.6493 14.2184 15.4006 14.5495C14.6239 15.5835 13.3898 16.25 11.9999 16.25C10.6099 16.25 9.37581 15.5835 8.59917 14.5495Z" fill="#2F384C"/>
</svg>
