<svg width="24" height="24" viewBox="0 0 24 24" fill="none" xmlns="http://www.w3.org/2000/svg">
<path d="M12 11V7M12.5 14.5C12.5 14.7761 12.2761 15 12 15C11.7239 15 11.5 14.7761 11.5 14.5M12.5 14.5C12.5 14.2239 12.2761 14 12 14C11.7239 14 11.5 14.2239 11.5 14.5M12.5 14.5H11.5M18.7165 21.0299V21.0299C19.5964 21.5578 20.0363 21.8218 20.3947 21.847C20.996 21.8893 21.5642 21.5676 21.8373 21.0302C22 20.71 22 20.1969 22 19.1708V10C22 7.19974 22 5.79961 21.455 4.73005C20.9757 3.78924 20.2108 3.02433 19.27 2.54497C18.2004 2 16.8003 2 14 2H10C7.19974 2 5.79961 2 4.73005 2.54497C3.78924 3.02433 3.02433 3.78924 2.54497 4.73005C2 5.79961 2 7.19974 2 10V12C2 14.8003 2 16.2004 2.54497 17.27C3.02433 18.2108 3.78924 18.9757 4.73005 19.455C5.79961 20 7.19974 20 10 20H14.9983C15.6103 20 15.9163 20 16.2154 20.0362C16.7122 20.0962 17.1972 20.2306 17.6542 20.4347C17.9293 20.5576 18.1917 20.715 18.7165 21.0299Z" stroke="#2F384C" stroke-width="1.5" stroke-linecap="round" stroke-linejoin="round"/>
</svg>
